<svg xmlns="http://www.w3.org/2000/svg" fill="none" viewBox="0 0 64 64" stroke-linecap="round" stroke-linejoin="round">
    <path stroke="#fff" stroke-width="2"
        d="M24 37.334c0 4.418 7.163 8 16 8s16-3.582 16-8c0-4.42-7.163-8-16-8s-16 3.58-16 8Z" />
    <path stroke="#fff" stroke-width="2" d="M24 37.334V48c0 4.416 7.163 8 16 8s16-3.584 16-8V37.334" />
    <path stroke="#2e2f45" stroke-width="1.5"
        d="M8 16c0 2.859 3.05 5.499 8 6.928 4.95 1.43 11.05 1.43 16 0 4.95-1.43 8-4.07 8-6.928 0-2.859-3.05-5.499-8-6.928-4.95-1.43-11.05-1.43-16 0-4.95 1.43-8 4.07-8 6.928Z" />
    <path stroke="#2e2f45" stroke-width="1.5" d="M8 16v26.667c0 2.368 2.059 3.866 5.333 5.333" />
    <path stroke="#2e2f45" stroke-width="1.5" d="M8 29.334c0 2.367 2.059 3.866 5.333 5.333" />
</svg>